# xmcd
#
# Track frame offsets:
#	150
#	25301
#	56447
#	79692
#	98322
#	124378
#	145321
#	181897
#	213205
#	230137
#	259816
#	295840
#
# Disc length: 4284 seconds
#
# Revision: 1
# Processed by: cddbd v1.5.2PL0 Copyright (c) Steve Scherf et al.
# Submitted via: audiograbber 1.83.01
#
DISCID=a610ba0c
DTITLE=Gov´t Mule - High and Might<
DYEAR=2006
DGENRE=Blues Rock
TTITLE0=Mr. High and Mighty
TTITLE1=Brand New Angel
TTITLE2=So Weak, So Strong
TTITLE3=Streamline Woman
TTITLE4=Child Of The Earth
TTITLE5=Like Flies
TTITLE6=Unring The Bell
TTITLE7=Nothing Again
TTITLE8=Milion Miles From Yesterday
TTITLE9=Brighter Days
TTITLE10=Endless Parade
TTITLE11=3 String George
EXTD=
EXTT0=
EXTT1=
EXTT2=
EXTT3=
EXTT4=
EXTT5=
EXTT6=
EXTT7=
EXTT8=
EXTT9=
EXTT10=
EXTT11=Bonus Track
PLAYORDER=
